<svg id="Layer_1" data-name="Layer 1" xmlns="http://www.w3.org/2000/svg" viewBox="0 0 500 500"><defs><style>.cls-1,.cls-4,.cls-5{fill:#347dc6;}.cls-1,.cls-2{fill-rule:evenodd;}.cls-3{fill:#fff;}.cls-5{font-size:111.55px;}.cls-5,.cls-6{font-family:Capsuula;}.cls-6{font-size:130.96px;}</style></defs><title>logo completa</title><path class="cls-1" d="M178.11,226.81H375.45V96.42q-1.93-1.07-3.81-2.22a7.72,7.72,0,0,1-3.31.7c-5.28,0-7.71-4.36-7.34-8.43a95.51,95.51,0,0,1-7.25-6.84,8.57,8.57,0,0,1-2,.23c-6.32,0-8.55-6.26-6.77-10.77a102,102,0,0,1-6.16-9.71c-.12,0-.22,0-.34,0-6.78,0-8.9-7.23-6.36-11.76H160.3a38.36,38.36,0,0,0-38.25,38.25v176.9a38.36,38.36,0,0,0,38.25,38.25h203c7.61,0,10.44-4.14,10.29-8-.15-4.11-3.74-8-9.89-8H178.11C138.75,285.11,138.75,226.81,178.11,226.81ZM346.08,86c9.87,0,9.86,15.32,0,15.32S336.22,86,346.08,86ZM326.7,62.28c9.87,0,9.86,15.32,0,15.32S316.84,62.28,326.7,62.28Z"/><polygon class="cls-2" points="181.95 243.41 232.55 243.41 232.55 328.31 206.47 313.89 181.95 328.31 181.95 243.41"/><path class="cls-2" d="M188.12,248.94a6.17,6.17,0,0,1,0-12.34H364.41a6.17,6.17,0,0,1,0,12.34Z"/><path class="cls-2" d="M188.12,271.51a6.18,6.18,0,0,1,0-12.35H364.41a6.18,6.18,0,0,1,0,12.35Z"/><rect class="cls-3" x="181.34" y="87.02" width="141.68" height="65.58" rx="7.65"/><circle class="cls-4" cx="358.97" cy="48.88" r="6.92"/><circle class="cls-4" cx="367.86" cy="73.96" r="6.92"/><circle class="cls-4" cx="384.46" cy="52.99" r="6.92"/><text class="cls-5" transform="translate(52.59 433.34)">My </text><text class="cls-6" transform="translate(176.92 445.99)">Books</text></svg>